<svg xmlns="http://www.w3.org/2000/svg" viewBox="0 0 32 32" width="32" height="32">
  <defs>
    <radialGradient id="bg32" cx="35%" cy="30%" r="75%">
      <stop offset="0%" stop-color="#0d2a12"/>
      <stop offset="100%" stop-color="#061008"/>
    </radialGradient>
    <linearGradient id="gold32" x1="0%" y1="0%" x2="100%" y2="100%">
      <stop offset="0%" stop-color="#e8c96a"/>
      <stop offset="100%" stop-color="#a07830"/>
    </linearGradient>
  </defs>

  <!-- Background -->
  <rect width="32" height="32" rx="7" ry="7" fill="url(#bg32)"/>

  <!-- 8-pointed star -->
  <path d="M16 6 L17 12 L21 9 L18 13 L24 14 L18 15 L21 19 L17 16 L16 22 L15 16 L11 19 L14 15 L8 14 L14 13 L11 9 L15 12 Z"
        fill="url(#gold32)" opacity="0.8"/>

  <!-- Crescent -->
  <path d="M14 9 Q19 11 19 16 Q19 21 14 23 Q17 21 17 16 Q17 11 14 9Z"
        fill="url(#gold32)" opacity="0.95"/>

  <!-- Small star -->
  <path d="M22 10 L22.4 11.6 L24 12 L22.4 12.4 L22 14 L21.6 12.4 L20 12 L21.6 11.6 Z"
        fill="#e8c96a" opacity="0.7"/>
</svg>
