<svg xmlns="http://www.w3.org/2000/svg" viewBox="0 0 32 32" width="32" height="32">
  <defs>
    <linearGradient id="bg" x1="0%" y1="0%" x2="100%" y2="100%">
      <stop offset="0%" stop-color="#1e1040"/>
      <stop offset="100%" stop-color="#0f0c29"/>
    </linearGradient>
    <linearGradient id="g" x1="0%" y1="0%" x2="100%" y2="100%">
      <stop offset="0%" stop-color="#a78bfa"/>
      <stop offset="100%" stop-color="#60a5fa"/>
    </linearGradient>
    <linearGradient id="s" x1="0%" y1="0%" x2="100%" y2="100%">
      <stop offset="0%" stop-color="#c4b5fd"/>
      <stop offset="100%" stop-color="#93c5fd"/>
    </linearGradient>
  </defs>
  <circle cx="16" cy="16" r="15" fill="url(#bg)" stroke="url(#g)" stroke-width="1.5"/>
  <rect x="8" y="6" width="16" height="2.5" rx="1.25" fill="url(#g)"/>
  <rect x="8" y="23.5" width="16" height="2.5" rx="1.25" fill="url(#g)"/>
  <path d="M9 8.5 L23 8.5 L18 16 L14 16 Z" fill="url(#g)" opacity="0.25"/>
  <path d="M11 8.5 L21 8.5 L18 16 L14 16 Z" fill="url(#s)" opacity="0.75"/>
  <path d="M14 16 L18 16 L23 23.5 L9 23.5 Z" fill="url(#g)" opacity="0.25"/>
  <path d="M10.5 23.5 L21.5 23.5 L19 19 L13 19 Z" fill="url(#s)" opacity="0.85"/>
  <circle cx="16" cy="16" r="1.5" fill="url(#g)"/>
</svg>
